<?xml version="1.0" encoding="UTF-8"?>
<svg xmlns="http://www.w3.org/2000/svg" viewBox="0 0 512 512" width="512" height="512">
  <!-- Круглый фон -->
  <circle cx="256" cy="256" r="256" fill="#F0F0F0"/>
  
  <!-- Силуэт бизнесмена - изначально центрирован около 256,256 -->
  <g transform="translate(0, 10)">
    <!-- Голова - увеличена и поднята -->
    <circle cx="256" cy="150" r="75" fill="#CCCCCC"/>
    
    <!-- Костюм - расширен и укорочен для лучшего заполнения круга -->
    <path d="M156 225v120c0 0 50 40 100 40s100-40 100-40V225c0 0-40 45-100 45S156 225 156 225z" fill="#1A3265"/>

    <!-- Рубашка - подстроена под новые размеры -->
    <path d="M226 250v95c0 0 15 5 30 5s30-5 30-5V250c0 0-12 15-30 15S226 250 226 250z" fill="#FFFFFF"/>
    
    <!-- Галстук - подстроен под новые размеры -->
    <path d="M256 250l-12 12-8 83c0 0 8 5 20 5s20-5 20-5l-8-83z" fill="#C62828"/>
    <path d="M256 250l-12 12 12 8 12-8z" fill="#AD0000"/>
  </g>
</svg>
